<mxfile host="app.diagrams.net" modified="2024-03-20T08:47:56.501Z" agent="Mozilla/5.0 (Windows NT 10.0; Win64; x64) AppleWebKit/537.36 (KHTML, like Gecko) Chrome/122.0.0.0 Safari/537.36" etag="VzTGm4uuZ1gJetukpWkD" version="24.0.7" type="github">
  <diagram name="Page-1" id="kr8RQMowBn344ddE0N8y">
    <mxGraphModel dx="1500" dy="746" grid="1" gridSize="10" guides="1" tooltips="1" connect="1" arrows="1" fold="1" page="1" pageScale="1" pageWidth="2000" pageHeight="1000" math="0" shadow="0">
      <root>
        <mxCell id="0" />
        <mxCell id="1" parent="0" />
        <mxCell id="a_WTQ3rnNguVCfui24H0-111" style="edgeStyle=orthogonalEdgeStyle;rounded=0;orthogonalLoop=1;jettySize=auto;html=1;exitX=1;exitY=1;exitDx=0;exitDy=0;exitPerimeter=0;entryX=0;entryY=0;entryDx=0;entryDy=0;" edge="1" parent="1" source="a_WTQ3rnNguVCfui24H0-84" target="a_WTQ3rnNguVCfui24H0-96">
          <mxGeometry relative="1" as="geometry" />
        </mxCell>
        <mxCell id="a_WTQ3rnNguVCfui24H0-84" value="Guest" style="shape=umlActor;verticalLabelPosition=bottom;verticalAlign=top;html=1;outlineConnect=0;" vertex="1" parent="1">
          <mxGeometry x="32" y="10" width="30" height="60" as="geometry" />
        </mxCell>
        <mxCell id="a_WTQ3rnNguVCfui24H0-114" style="edgeStyle=orthogonalEdgeStyle;rounded=0;orthogonalLoop=1;jettySize=auto;html=1;exitX=0.5;exitY=0.5;exitDx=0;exitDy=0;exitPerimeter=0;" edge="1" parent="1" source="a_WTQ3rnNguVCfui24H0-87" target="a_WTQ3rnNguVCfui24H0-96">
          <mxGeometry relative="1" as="geometry" />
        </mxCell>
        <mxCell id="a_WTQ3rnNguVCfui24H0-125" style="edgeStyle=orthogonalEdgeStyle;rounded=0;orthogonalLoop=1;jettySize=auto;html=1;exitX=0.5;exitY=0.5;exitDx=0;exitDy=0;exitPerimeter=0;" edge="1" parent="1" source="a_WTQ3rnNguVCfui24H0-87" target="a_WTQ3rnNguVCfui24H0-107">
          <mxGeometry relative="1" as="geometry" />
        </mxCell>
        <mxCell id="a_WTQ3rnNguVCfui24H0-87" value="Receptionist&lt;div&gt;&lt;br&gt;&lt;/div&gt;" style="shape=umlActor;verticalLabelPosition=bottom;verticalAlign=top;html=1;outlineConnect=0;" vertex="1" parent="1">
          <mxGeometry x="32" y="300" width="30" height="60" as="geometry" />
        </mxCell>
        <mxCell id="a_WTQ3rnNguVCfui24H0-116" style="edgeStyle=orthogonalEdgeStyle;rounded=0;orthogonalLoop=1;jettySize=auto;html=1;exitX=0.5;exitY=0.5;exitDx=0;exitDy=0;exitPerimeter=0;entryX=0;entryY=0.5;entryDx=0;entryDy=0;" edge="1" parent="1" source="a_WTQ3rnNguVCfui24H0-88" target="a_WTQ3rnNguVCfui24H0-105">
          <mxGeometry relative="1" as="geometry" />
        </mxCell>
        <mxCell id="a_WTQ3rnNguVCfui24H0-120" style="edgeStyle=orthogonalEdgeStyle;rounded=0;orthogonalLoop=1;jettySize=auto;html=1;exitX=0.5;exitY=0.5;exitDx=0;exitDy=0;exitPerimeter=0;entryX=0;entryY=0.5;entryDx=0;entryDy=0;" edge="1" parent="1" source="a_WTQ3rnNguVCfui24H0-88" target="a_WTQ3rnNguVCfui24H0-104">
          <mxGeometry relative="1" as="geometry" />
        </mxCell>
        <mxCell id="a_WTQ3rnNguVCfui24H0-126" style="edgeStyle=orthogonalEdgeStyle;rounded=0;orthogonalLoop=1;jettySize=auto;html=1;exitX=0.5;exitY=0.5;exitDx=0;exitDy=0;exitPerimeter=0;" edge="1" parent="1" source="a_WTQ3rnNguVCfui24H0-88" target="a_WTQ3rnNguVCfui24H0-102">
          <mxGeometry relative="1" as="geometry" />
        </mxCell>
        <mxCell id="a_WTQ3rnNguVCfui24H0-88" value="Manager" style="shape=umlActor;verticalLabelPosition=bottom;verticalAlign=top;html=1;outlineConnect=0;" vertex="1" parent="1">
          <mxGeometry x="32" y="550" width="30" height="60" as="geometry" />
        </mxCell>
        <mxCell id="a_WTQ3rnNguVCfui24H0-121" style="edgeStyle=orthogonalEdgeStyle;rounded=0;orthogonalLoop=1;jettySize=auto;html=1;exitX=0.5;exitY=0.5;exitDx=0;exitDy=0;exitPerimeter=0;" edge="1" parent="1" source="a_WTQ3rnNguVCfui24H0-89" target="a_WTQ3rnNguVCfui24H0-108">
          <mxGeometry relative="1" as="geometry" />
        </mxCell>
        <mxCell id="a_WTQ3rnNguVCfui24H0-127" style="edgeStyle=orthogonalEdgeStyle;rounded=0;orthogonalLoop=1;jettySize=auto;html=1;exitX=0.5;exitY=0.5;exitDx=0;exitDy=0;exitPerimeter=0;entryX=1;entryY=1;entryDx=0;entryDy=0;" edge="1" parent="1" source="a_WTQ3rnNguVCfui24H0-89" target="a_WTQ3rnNguVCfui24H0-104">
          <mxGeometry relative="1" as="geometry" />
        </mxCell>
        <mxCell id="a_WTQ3rnNguVCfui24H0-89" value="Housekeeping&lt;div&gt;Staff&lt;/div&gt;" style="shape=umlActor;verticalLabelPosition=bottom;verticalAlign=top;html=1;outlineConnect=0;" vertex="1" parent="1">
          <mxGeometry x="32" y="870" width="30" height="60" as="geometry" />
        </mxCell>
        <mxCell id="a_WTQ3rnNguVCfui24H0-115" style="edgeStyle=orthogonalEdgeStyle;rounded=0;orthogonalLoop=1;jettySize=auto;html=1;exitX=1;exitY=0.5;exitDx=0;exitDy=0;" edge="1" parent="1" source="a_WTQ3rnNguVCfui24H0-96" target="a_WTQ3rnNguVCfui24H0-102">
          <mxGeometry relative="1" as="geometry" />
        </mxCell>
        <mxCell id="a_WTQ3rnNguVCfui24H0-118" style="edgeStyle=orthogonalEdgeStyle;rounded=0;orthogonalLoop=1;jettySize=auto;html=1;exitX=1;exitY=0.5;exitDx=0;exitDy=0;" edge="1" parent="1" source="a_WTQ3rnNguVCfui24H0-96" target="a_WTQ3rnNguVCfui24H0-99">
          <mxGeometry relative="1" as="geometry" />
        </mxCell>
        <mxCell id="a_WTQ3rnNguVCfui24H0-96" value="MAKE RESERVATION" style="ellipse;whiteSpace=wrap;html=1;" vertex="1" parent="1">
          <mxGeometry x="120" y="160" width="120" height="80" as="geometry" />
        </mxCell>
        <mxCell id="a_WTQ3rnNguVCfui24H0-123" style="edgeStyle=orthogonalEdgeStyle;rounded=0;orthogonalLoop=1;jettySize=auto;html=1;exitX=1;exitY=0.5;exitDx=0;exitDy=0;" edge="1" parent="1" source="a_WTQ3rnNguVCfui24H0-99" target="a_WTQ3rnNguVCfui24H0-101">
          <mxGeometry relative="1" as="geometry" />
        </mxCell>
        <mxCell id="a_WTQ3rnNguVCfui24H0-99" value="CHECK-IN" style="ellipse;whiteSpace=wrap;html=1;" vertex="1" parent="1">
          <mxGeometry x="400" y="180" width="120" height="80" as="geometry" />
        </mxCell>
        <mxCell id="a_WTQ3rnNguVCfui24H0-124" style="edgeStyle=orthogonalEdgeStyle;rounded=0;orthogonalLoop=1;jettySize=auto;html=1;exitX=1;exitY=0.5;exitDx=0;exitDy=0;" edge="1" parent="1" source="a_WTQ3rnNguVCfui24H0-101" target="a_WTQ3rnNguVCfui24H0-109">
          <mxGeometry relative="1" as="geometry" />
        </mxCell>
        <mxCell id="a_WTQ3rnNguVCfui24H0-101" value="CHECK OUT" style="ellipse;whiteSpace=wrap;html=1;" vertex="1" parent="1">
          <mxGeometry x="580" y="180" width="120" height="80" as="geometry" />
        </mxCell>
        <mxCell id="a_WTQ3rnNguVCfui24H0-119" style="edgeStyle=orthogonalEdgeStyle;rounded=0;orthogonalLoop=1;jettySize=auto;html=1;exitX=1;exitY=0.5;exitDx=0;exitDy=0;" edge="1" parent="1" source="a_WTQ3rnNguVCfui24H0-102" target="a_WTQ3rnNguVCfui24H0-104">
          <mxGeometry relative="1" as="geometry" />
        </mxCell>
        <mxCell id="a_WTQ3rnNguVCfui24H0-102" value="MANAGE RESERVATION" style="ellipse;whiteSpace=wrap;html=1;" vertex="1" parent="1">
          <mxGeometry x="110" y="370" width="120" height="80" as="geometry" />
        </mxCell>
        <mxCell id="a_WTQ3rnNguVCfui24H0-103" value="CANCEL RESERVATION" style="ellipse;whiteSpace=wrap;html=1;" vertex="1" parent="1">
          <mxGeometry x="270" y="40" width="120" height="80" as="geometry" />
        </mxCell>
        <mxCell id="a_WTQ3rnNguVCfui24H0-130" style="edgeStyle=orthogonalEdgeStyle;rounded=0;orthogonalLoop=1;jettySize=auto;html=1;exitX=0;exitY=0;exitDx=0;exitDy=0;entryX=1;entryY=0;entryDx=0;entryDy=0;" edge="1" parent="1" source="a_WTQ3rnNguVCfui24H0-104" target="a_WTQ3rnNguVCfui24H0-107">
          <mxGeometry relative="1" as="geometry" />
        </mxCell>
        <mxCell id="a_WTQ3rnNguVCfui24H0-104" value="MANAGE ROOM" style="ellipse;whiteSpace=wrap;html=1;" vertex="1" parent="1">
          <mxGeometry x="680" y="410" width="120" height="80" as="geometry" />
        </mxCell>
        <mxCell id="a_WTQ3rnNguVCfui24H0-117" style="edgeStyle=orthogonalEdgeStyle;rounded=0;orthogonalLoop=1;jettySize=auto;html=1;exitX=1;exitY=0.5;exitDx=0;exitDy=0;entryX=0;entryY=0.5;entryDx=0;entryDy=0;" edge="1" parent="1" source="a_WTQ3rnNguVCfui24H0-105" target="a_WTQ3rnNguVCfui24H0-110">
          <mxGeometry relative="1" as="geometry" />
        </mxCell>
        <mxCell id="a_WTQ3rnNguVCfui24H0-105" value="MANAGE STAFF&lt;div&gt;&lt;br&gt;&lt;/div&gt;" style="ellipse;whiteSpace=wrap;html=1;" vertex="1" parent="1">
          <mxGeometry x="210" y="560" width="120" height="80" as="geometry" />
        </mxCell>
        <mxCell id="a_WTQ3rnNguVCfui24H0-106" value="MANAGE INVENTORY" style="ellipse;whiteSpace=wrap;html=1;" vertex="1" parent="1">
          <mxGeometry x="550" y="710" width="120" height="80" as="geometry" />
        </mxCell>
        <mxCell id="a_WTQ3rnNguVCfui24H0-107" value="MANAGE BILLING" style="ellipse;whiteSpace=wrap;html=1;" vertex="1" parent="1">
          <mxGeometry x="490" y="300" width="120" height="80" as="geometry" />
        </mxCell>
        <mxCell id="a_WTQ3rnNguVCfui24H0-122" style="edgeStyle=orthogonalEdgeStyle;rounded=0;orthogonalLoop=1;jettySize=auto;html=1;exitX=1;exitY=0.5;exitDx=0;exitDy=0;entryX=0;entryY=0.5;entryDx=0;entryDy=0;" edge="1" parent="1" source="a_WTQ3rnNguVCfui24H0-108" target="a_WTQ3rnNguVCfui24H0-106">
          <mxGeometry relative="1" as="geometry" />
        </mxCell>
        <mxCell id="a_WTQ3rnNguVCfui24H0-108" value="CLEAN ROOM" style="ellipse;whiteSpace=wrap;html=1;" vertex="1" parent="1">
          <mxGeometry x="320" y="710" width="120" height="80" as="geometry" />
        </mxCell>
        <mxCell id="a_WTQ3rnNguVCfui24H0-109" value="REPORT ISSUE" style="ellipse;whiteSpace=wrap;html=1;" vertex="1" parent="1">
          <mxGeometry x="660" y="80" width="120" height="80" as="geometry" />
        </mxCell>
        <mxCell id="a_WTQ3rnNguVCfui24H0-110" value="VIEW REPORTS" style="ellipse;whiteSpace=wrap;html=1;" vertex="1" parent="1">
          <mxGeometry x="450" y="480" width="120" height="80" as="geometry" />
        </mxCell>
        <mxCell id="a_WTQ3rnNguVCfui24H0-112" style="edgeStyle=orthogonalEdgeStyle;rounded=0;orthogonalLoop=1;jettySize=auto;html=1;exitX=1;exitY=0;exitDx=0;exitDy=0;entryX=0.25;entryY=0.919;entryDx=0;entryDy=0;entryPerimeter=0;" edge="1" parent="1" source="a_WTQ3rnNguVCfui24H0-96" target="a_WTQ3rnNguVCfui24H0-103">
          <mxGeometry relative="1" as="geometry" />
        </mxCell>
      </root>
    </mxGraphModel>
  </diagram>
</mxfile>
